<svg width="162" height="24" viewBox="0 0 162 24" fill="none" xmlns="http://www.w3.org/2000/svg">
<path d="M16.019 17.017C16.019 18.133 15.74 19.1663 15.182 20.117C14.624 21.047 13.7973 21.8013 12.702 22.38C11.6067 22.938 10.2737 23.217 8.703 23.217C7.153 23.217 5.76833 22.9587 4.549 22.442C3.32967 21.9047 2.348 21.14 1.604 20.148C0.880667 19.156 0.467333 17.9987 0.364 16.676H5.014C5.11733 17.5647 5.46867 18.3087 6.068 18.908C6.688 19.4867 7.50433 19.776 8.517 19.776C9.42633 19.776 10.1187 19.5383 10.594 19.063C11.09 18.567 11.338 17.9367 11.338 17.172C11.338 16.49 11.1417 15.932 10.749 15.498C10.3563 15.0433 9.86033 14.6817 9.261 14.413C8.66167 14.1443 7.835 13.8343 6.781 13.483C5.417 13.0283 4.301 12.584 3.433 12.15C2.565 11.6953 1.821 11.0443 1.201 10.197C0.601667 9.34967 0.302 8.244 0.302 6.88C0.302 4.99933 0.973667 3.52167 2.317 2.447C3.681 1.35167 5.479 0.803999 7.711 0.803999C10.0257 0.803999 11.865 1.362 13.229 2.478C14.6137 3.594 15.399 5.082 15.585 6.942H10.873C10.749 6.15667 10.4183 5.516 9.881 5.02C9.34367 4.50333 8.61 4.245 7.68 4.245C6.874 4.245 6.223 4.462 5.727 4.896C5.231 5.30933 4.983 5.919 4.983 6.725C4.983 7.36567 5.169 7.903 5.541 8.337C5.93367 8.75033 6.41933 9.09133 6.998 9.36C7.59733 9.62867 8.40333 9.92833 9.416 10.259C10.8213 10.755 11.958 11.22 12.826 11.654C13.7147 12.088 14.469 12.739 15.089 13.607C15.709 14.475 16.019 15.6117 16.019 17.017ZM28.9748 19.249V23H26.6808C24.7588 23 23.2811 22.535 22.2478 21.605C21.2351 20.675 20.7288 19.125 20.7288 16.955V9.515H18.3418V5.826H20.7288V1.579H25.0998V5.826H28.9438V9.515H25.0998V17.017C25.0998 17.8437 25.2651 18.4223 25.5958 18.753C25.9265 19.0837 26.4845 19.249 27.2698 19.249H28.9748ZM39.407 5.609C40.8537 5.609 42.0937 5.95 43.127 6.632C44.1604 7.314 44.894 8.23367 45.328 9.391V5.826H49.668V23H45.328V19.404C44.894 20.5613 44.1604 21.4913 43.127 22.194C42.0937 22.876 40.8537 23.217 39.407 23.217C37.9604 23.217 36.6584 22.8657 35.501 22.163C34.3437 21.4603 33.4344 20.4477 32.773 19.125C32.1324 17.7817 31.812 16.211 31.812 14.413C31.812 12.615 32.1324 11.0547 32.773 9.732C33.4344 8.38867 34.3437 7.36567 35.501 6.663C36.6584 5.96033 37.9604 5.609 39.407 5.609ZM40.771 9.422C39.407 9.422 38.3117 9.86633 37.485 10.755C36.6584 11.6437 36.245 12.863 36.245 14.413C36.245 15.963 36.6584 17.1823 37.485 18.071C38.3117 18.939 39.407 19.373 40.771 19.373C42.0937 19.373 43.1787 18.9287 44.026 18.04C44.894 17.1307 45.328 15.9217 45.328 14.413C45.328 12.8837 44.894 11.6747 44.026 10.786C43.1787 9.87667 42.0937 9.422 40.771 9.422ZM58.5602 9.112C59.2008 8.01667 60.0482 7.159 61.1022 6.539C62.1562 5.89833 63.3342 5.578 64.6362 5.578V10.259H63.3652C60.1618 10.259 58.5602 11.747 58.5602 14.723V23H54.1892V5.826H58.5602V9.112ZM77.8763 5.609C79.323 5.609 80.625 5.96033 81.7823 6.663C82.9397 7.36567 83.8387 8.38867 84.4793 9.732C85.1407 11.0547 85.4713 12.615 85.4713 14.413C85.4713 16.211 85.1407 17.7817 84.4793 19.125C83.8387 20.4477 82.9397 21.4603 81.7823 22.163C80.625 22.8657 79.323 23.217 77.8763 23.217C76.4297 23.217 75.1897 22.876 74.1563 22.194C73.1437 21.4913 72.4203 20.5613 71.9863 19.404V23H67.6153V0.0599997H71.9863V9.391C72.4203 8.23367 73.1437 7.314 74.1563 6.632C75.1897 5.95 76.4297 5.609 77.8763 5.609ZM76.5123 9.422C75.1897 9.422 74.0943 9.87667 73.2263 10.786C72.379 11.6747 71.9553 12.8837 71.9553 14.413C71.9553 15.9217 72.379 17.1307 73.2263 18.04C74.0943 18.9287 75.1897 19.373 76.5123 19.373C77.8763 19.373 78.9717 18.939 79.7983 18.071C80.625 17.1823 81.0383 15.963 81.0383 14.413C81.0383 12.863 80.625 11.6437 79.7983 10.755C78.9717 9.86633 77.8763 9.422 76.5123 9.422ZM97.0605 5.609C98.7345 5.609 100.233 5.96033 101.555 6.663C102.899 7.36567 103.953 8.38867 104.717 9.732C105.482 11.0547 105.864 12.615 105.864 14.413C105.864 16.211 105.482 17.7713 104.717 19.094C103.953 20.4167 102.899 21.4397 101.555 22.163C100.233 22.8657 98.7345 23.217 97.0605 23.217C95.3865 23.217 93.8778 22.8657 92.5345 22.163C91.2118 21.4397 90.1681 20.4167 89.4035 19.094C88.6388 17.7713 88.2565 16.211 88.2565 14.413C88.2565 12.615 88.6388 11.0547 89.4035 9.732C90.1681 8.38867 91.2118 7.36567 92.5345 6.663C93.8778 5.96033 95.3865 5.609 97.0605 5.609ZM97.0605 9.391C95.8411 9.391 94.8078 9.825 93.9605 10.693C93.1131 11.5403 92.6895 12.7803 92.6895 14.413C92.6895 16.0457 93.1131 17.296 93.9605 18.164C94.8078 19.0113 95.8411 19.435 97.0605 19.435C98.2798 19.435 99.3131 19.0113 100.16 18.164C101.008 17.296 101.431 16.0457 101.431 14.413C101.431 12.7803 101.008 11.5403 100.16 10.693C99.3131 9.825 98.2798 9.391 97.0605 9.391ZM116.24 5.609C117.687 5.609 118.927 5.95 119.96 6.632C120.994 7.314 121.727 8.23367 122.161 9.391V5.826H126.501V23H122.161V19.404C121.727 20.5613 120.994 21.4913 119.96 22.194C118.927 22.876 117.687 23.217 116.24 23.217C114.794 23.217 113.492 22.8657 112.334 22.163C111.177 21.4603 110.268 20.4477 109.606 19.125C108.966 17.7817 108.645 16.211 108.645 14.413C108.645 12.615 108.966 11.0547 109.606 9.732C110.268 8.38867 111.177 7.36567 112.334 6.663C113.492 5.96033 114.794 5.609 116.24 5.609ZM117.604 9.422C116.24 9.422 115.145 9.86633 114.318 10.755C113.492 11.6437 113.078 12.863 113.078 14.413C113.078 15.963 113.492 17.1823 114.318 18.071C115.145 18.939 116.24 19.373 117.604 19.373C118.927 19.373 120.012 18.9287 120.859 18.04C121.727 17.1307 122.161 15.9217 122.161 14.413C122.161 12.8837 121.727 11.6747 120.859 10.786C120.012 9.87667 118.927 9.422 117.604 9.422ZM135.394 9.112C136.034 8.01667 136.882 7.159 137.936 6.539C138.99 5.89833 140.168 5.578 141.47 5.578V10.259H140.199C136.995 10.259 135.394 11.747 135.394 14.723V23H131.023V5.826H135.394V9.112ZM151.176 5.609C152.622 5.609 153.852 5.95 154.865 6.632C155.898 7.314 156.642 8.23367 157.097 9.391V0.0599997H161.437V23H157.097V19.404C156.642 20.5613 155.898 21.4913 154.865 22.194C153.852 22.876 152.622 23.217 151.176 23.217C149.729 23.217 148.427 22.8657 147.27 22.163C146.112 21.4603 145.203 20.4477 144.542 19.125C143.901 17.7817 143.581 16.211 143.581 14.413C143.581 12.615 143.901 11.0547 144.542 9.732C145.203 8.38867 146.112 7.36567 147.27 6.663C148.427 5.96033 149.729 5.609 151.176 5.609ZM152.54 9.422C151.176 9.422 150.08 9.86633 149.254 10.755C148.427 11.6437 148.014 12.863 148.014 14.413C148.014 15.963 148.427 17.1823 149.254 18.071C150.08 18.939 151.176 19.373 152.54 19.373C153.862 19.373 154.947 18.9287 155.795 18.04C156.663 17.1307 157.097 15.9217 157.097 14.413C157.097 12.8837 156.663 11.6747 155.795 10.786C154.947 9.87667 153.862 9.422 152.54 9.422Z" fill="white"/>
</svg>
